<svg xmlns="http://www.w3.org/2000/svg" xmlns:xlink="http://www.w3.org/1999/xlink" viewBox="0 0 614.5 325.5">
  <g id="Grey_back_4" class="interact_with" data-name="Grey back 4" style="isolation: isolate">
    <path d="M216.5,88.5c11.73-.35,26.89,9.46,35.5,13,3.49,1.44,10.26,4.58,13,5.5-15.94,2.07-14.87.32-31-1.5a125.31,125.31,0,0,0-16.5-1c-2.17-.17-12.67.41-15,1-9.22,2.27-18.7,5.49-30,5.5,9.25-4.76,11.61-5.4,17-8,5.94-2.87,12.24-5.57,18-10,.83-.83,2.67-2.17,3.5-3C213.67,88.84,214.43,88.43,216.5,88.5Z" fill-rule="evenodd"/>
  </g>
  <g id="Grey_back_3" class="interact_with" data-name="Grey back 3" style="isolation: isolate">
    <path d="M404,168c13.81.49,27.13,3.85,38,6.5,8.61,2.1,19.33,2.63,27.5,4.5.74.25,1.67.93,1,1.5-3.57,1.92-7.7,3.16-12,5C453.23,187.75,439,193,429,190c-5.93-1.76-10.1-8.58-14.5-12.5C411.28,174.63,407.07,171.85,404,168Z" fill-rule="evenodd"/>
    <path d="M453.5,182c.54-.43.38-1,0-1.5-3.18-.44-6.42-1.84-11.5-2.5a100.89,100.89,0,0,1-10-2c-5.66-1.38-13.57-3.06-16-1.5,1.26,2.48,4.58,4.49,6.5,6C432.29,188.24,436.3,186.38,453.5,182Z"  fill-rule="evenodd"/>
  </g>
  <g id="Grey_back_2" class="interact_with" data-name="Grey back 2" style="isolation: isolate">
    <path d="M367.5,155.5c4.08-.9,12,4.89,14,6.5,3.76,3.88,7.87,8.33,12,13,1.63,1.85,9.69,8.87,11,12,2.5,3.42,1,11.24-6.5,14-8.36,3.07-32.67.5-42,0-7.56-.41-23.87-2-25-2-21.43-3-19.4-5.23-18.5-8,5.66,1.22,51.27,3.68,76,3.5-.21-.77,6.88,1.67,9.5-3.5.93-1.86-1.68-6.62-3-8C389.05,172.9,378.44,161.09,367.5,155.5Z" fill-rule="evenodd"/>
  </g>
  <g id="Grey_back_1" class="interact_with" data-name="Grey back 1" style="isolation: isolate">
    <path d="M272.5,183.5c6.66,17.22,17.05,26.05,26.5,35.5,2.35,5.53,10.77,22,16,29.5-5.9-.62-11.6-3.15-25-6.5-15.13-3.94-37.75-16.59-51.5-10.5-7.69-10.07-24.36-20.87-30.5-28-1.23-3.59-2-10.09-2.5-15.5-.76-8.39-1.52-24-1.5-22.5C234,178.05,262.72,181.42,272.5,183.5Z" fill-rule="evenodd"/>
  </g>
  <g id="White_back" class="interact_with" data-name="White back" style="isolation: isolate">
    <path d="M74,157c.08-.81.71,11.2,1.48,16.53.44,3.05,2.68,9.68,6,12.47,5.75,4.81,9.91,5.34,19.5,5.5,10-.46,15.6-1.24,22.5-3A63.79,63.79,0,0,0,137,184c2-.73,4-2.76-.5-5-3-1.55-9.55-3.46-25.5-9.5C90.4,161.7,75.34,157.12,74,157Z"  fill-rule="evenodd"/>
    <path d="M89,91c6.1-.93,7.54.77,12,3,2.37,1.82,3.52,7.41,5.5,12.5A23.89,23.89,0,0,0,113,116c-8.38,3.62-11.35,5.08-14,6.5-3.65,2.13-9,5.86-9,12.5,0,1.81,1.29,6.05,5,9,9.9,7.87,27.82,10,39.5,16,22,11.39,47.52,21.95,64,36,15.12,12.89,38.23,31.81,39.5,35.5-4.24,1.06-20,6-24,6.5-13.51-4.41-34.14-11.87-47.5-15-17.18-3.95-35-8.81-55.5-13-5.48-.74-19.35-1-25,1-3.52,1.23-9.15,3.36-14,1.5-4-1.52-5.21-6-5-8,.45-4.31.76-5.69,1-9.5.16-.63,1.78-25.86,2.5-33.5.43-4.51,2.88-24.59,4-29,3.24-12.7,3.64-27.06,10-36.5C85.56,94.43,87.21,91.81,89,91Z" fill-rule="evenodd"/>
  </g>
  <g id="White_top_3" class="interact_with" data-name="White top 3" style="isolation: isolate">
    <path d="M280,106a23.2,23.2,0,0,1,1.5-6c2.83-6.75,8.76-12.52,12-15.5.8-.82,9.29,3.88,9,7,.41-.25-15.3,8.07-19.5,12.5C282.33,104,280.67,106,280,106Z"  fill-rule="evenodd"/>
  </g>
  <g id="White_top_2" class="interact_with" data-name="White top 2" style="isolation: isolate">
    <path d="M252,70a6,6,0,0,0-3,2.5c-.92,2-.92,5.58,3.5,5.5,1.59-.12,2.42-2,3-3.5.41-3.62-.62-4-1-4.5A4.32,4.32,0,0,0,252,70Z"  fill-rule="evenodd"/>
    <path d="M244,64a53.64,53.64,0,0,1,31,8.5c2,1.28,5.18,3.78,7.5,5-1.53,1.34-1.93,1.84-3.5,4.5a47.1,47.1,0,0,0-3,6.5c-1.51,4.64-.28,4.56.5,5-2.69,3.2-4.66,7.94-5.5,14-3.84.67-10.86-2.39-15.5-4.5-7-3.2-15.37-7.45-22.5-10.5-4.81-2.06-14.86-6.07-21-3,4.45-4.3,12-15.35,18-19.5,2-1.37,5.35-3.7,7.5-4.5A19.4,19.4,0,0,1,244,64Z" fill-rule="evenodd"/>
  </g>
  <g id="White_top_1" class="interact_with" data-name="White top 1" style="isolation: isolate">
    <path d="M411,144.5c2.48,2.13,38.54,11,41.5,13-33.74-1.54-33.86,3.54-44.5,4-20.08.44-32.83-9.34-40.5-17-4.32-4.32-10.61-8.76-10.5-13.5,0-2.64,2.07-4.48,5-5.5,2.33-1.62,9.36.72,11,2-2.78,1.27-4.43,5.87-4.5,9,0,.82,1.39,4.56,9.5,3.5,4.78-1.49,6.79-6.65,8.5-7.5,2.46,1.26,5.36,2.15,7,3A20.54,20.54,0,0,0,400,138a22,22,0,0,0-1.5,9.5c.25,1.58,4.12,5.39,7.5,4.5C408.36,151.14,410.91,147.05,411,144.5Z" fill-rule="evenodd"/>
  </g>
  <g id="Grey_middle_3" class="interact_with" data-name="Grey middle 3" style="isolation: isolate">
    <path d="M332.5,130.5a59.72,59.72,0,0,0-13-2.5c-6.49-.54-13.76.32-18.5,1,4.89-4.09,6.27-5.08,9.5-8.5,2.67-2.83,5.9-7.83,8-10.5,2.41-.44,4.79-1.29,8-1,.84,1.91,4.29,8.52,6.5,13-.07,1.07-.56,2.16.5,3.5,2.75,3.47,3.46-1.81,6,5.5,1.19,3.42,2,7,6.5,7.5a2.23,2.23,0,0,0,2-2.5c-1.24-4.33-3.06-6.44-5-10.5,3.91-.15,5.84-2,8-4,3.1.6,6.86,4.27,9,5a4.27,4.27,0,0,0-3,4,13.43,13.43,0,0,0,3.5,9.5c-5.26,2.13-14.72,5.12-20,7.5-14.92,6.73-26.59,13.76-35.19,17.07-10.79,5.58-13.71,6.81-15.81,15.43-1.78,7.29,1.18,21.94,4.5,28,1.23,2.79,10.31,18.56,9.5,19-7.35-15.5-13.27-13.13-24.5-30.5-1.62-2.46-5.33-9.57-6.5-14.5-.64-2.72-3.6-9.22,12.5-20.5a145.54,145.54,0,0,1,15.5-9.5c4.19-3,21-11.09,33-14.5C339.69,134.66,334.88,131.38,332.5,130.5Z" fill-rule="evenodd"/>
  </g>
  <g id="Grey_middle_2" class="interact_with" data-name="Grey middle 2" style="isolation: isolate">
    <path d="M303,91a19.69,19.69,0,0,0,8.5,6c-1.73,1.21-6.49,6.26-7,8.5-.61,2.69.91,4.93,1,6-1.71,2.86-11.9,10.11-15,12-4.56,2.79-12.36,2.2-13-3.5-1.23-2,1.05-8.53,2-10.5,1.83.31,4,.69,6.5-3,1.79-2.65,1.13-3.4,1-5.5C289.92,97.87,299.36,92.28,303,91Z"  fill-rule="evenodd"/>
  </g>
  <g id="Grey_middle_1" class="interact_with" data-name="Grey middle 1" style="isolation: isolate">
    <path d="M276,134.5c-19.44,2.91-33.66,5.83-50,9-19,3.69-20.58,6.71-22,11.5-.93,3.15.05,18.65.5,23a140.73,140.73,0,0,0,3,25c-5.45-4.1-2.87-2.81-16.5-12-5.49-3.7-11.85-7.41-17.5-10.5a500.71,500.71,0,0,0-60.5-28c-13-5-23.08-5.84-23-21.5-.33,0,26-1,30-1,7.84,0,13.75-.34,34-.5,15.83-.13,43.35-.78,86-10.5,6-.15,17.74-3.56,29-6-.59,1.68-1.44,8.06,0,12C270.17,128.2,275.23,131.86,276,134.5Z"  fill-rule="evenodd"/>
  </g>
  <g id="White_middle" class="interact_with" data-name="White middle" style="isolation: isolate">
    <path d="M403.5,168c3.29,3.21,6,5.43,9.5,8.5,6,5.26,11.5,14.12,20,14.5,14.94.67,37.86-9.73,38-11-.07-1.82-23.81-4.23-30.5-6C429.52,171.09,413.94,167.68,403.5,168Z"  fill-rule="evenodd"/>
    <path d="M365.5,156c-1.88.81-8.52,3.34-12.5,5.5-8.42,4.56-16.38,8.41-24.5,13.5-5.41,3.39-16.54,8.47-16.5,18.5.52,5.91,56.92,8.62,65.5,9,14.06.63,29.41.3,28-13.5-1.74-5.48-11.76-13.28-15.5-18s-9.53-11.38-16-14.5C371.81,155.44,368.14,154.68,365.5,156Z" fill-rule="evenodd"/>
    <path d="M520,174.5c-5.82,2.84-26.05,7.09-33,9-6,2.06-14.51,4.52-22.5,9-10,5.64-14.57,13-19,21.5-4.95,11.6-13.59,33.27-14,34.5-69.25,6.71-86.5,3.43-116.5,0-.07-.48-11.58-17.69-17-32.5-2.08-5.69-5.9-12.67-7.5-18.5-1.75-6.37-4.13-17.43,1.5-24,6.11-7.13,18.87-9.81,24-14,8.28-3.41,31-17.1,47-19.5,21.92,24.81,43.11,21.47,50.5,21,3.14-.2,14.61-3.22,17-3,1.8.16,6.21,1.81,5,1.5C446.08,162.21,455.79,174.6,520,174.5Z" fill-rule="evenodd"/>
  </g>
  <g id="Tip" class="interact_with" style="isolation: isolate">
    <path d="M521.5,172c12.89,1.43,35.57,9,42,16.5,3,3.55,4.78,8.77,6.5,13.5s3.74,10.16,4.5,16a35.75,35.75,0,0,0-6,2c-1.5.33-4.5,2.17-6,2.5a115.52,115.52,0,0,1-15.5,6,404.22,404.22,0,0,1-54,13c-3,.42-5.63.86-8.5,1.5-15.86,2.24-33.58,5.92-52.5,6v-1c1.14-3.78,2.66-7.69,4-11,.69-1.69,2.81-7.73,3.5-9.5,1.12-2.85,3.76-8.21,5-11,3.52-7.89,12.25-20.12,19-24,12.05-6.94,22.13-9.23,36.5-12,3.94-.76,6.73-1.41,11-2.5A24.43,24.43,0,0,0,521.5,172Z" fill-rule="evenodd"/>
  </g>
  <g id="Shadow_copy_Image" data-name="Shadow copy Image">
    <image id="Shadow_copy_Image-2" data-name="Shadow copy Image" width="1229" height="651" transform="scale(0.5)" xlink:href="shoe_configurator1.png"/>
  </g>
</svg>
